<svg xmlns="http://www.w3.org/2000/svg" width="40" height="40" viewBox="0 0 40 40">
    <path fill="#2B333E" fill-rule="evenodd" d="M17.808 21.48l-1.68 1.68a.849.849 0 0 0 .011 1.2.849.849 0 0 0 1.2.013l1.68-1.68 4.854-4.854 1.188-1.188c.984-.984.968-2.596-.037-3.6-1.004-1.004-2.616-1.02-3.6-.036l-7.721 7.721c-1.64 1.64-1.613 4.327.06 6 1.611 1.611 4.16 1.697 5.811.24l.006.005.184-.184 1.212 1.212c-2.296 2.297-6.057 2.259-8.4-.084-2.344-2.344-2.382-6.105-.085-8.4l7.721-7.722c1.64-1.64 4.327-1.613 6 .06 1.674 1.674 1.701 4.36.061 6l-3.964 3.964-2.57 2.57-1.188 1.188c-.984.984-2.596.968-3.6-.036s-1.02-2.616-.036-3.6l5.927-5.928a.857.857 0 0 1 1.213 1.212l-4.247 4.247z"/>
</svg>
