<svg xmlns="http://www.w3.org/2000/svg" width="20" height="20" viewBox="0 0 20 20">
    <g fill="none" fill-rule="evenodd">
        <path fill="#000" d="M11.245 3.702l6.503 12.225A1.41 1.41 0 0 1 16.503 18H3.496a1.41 1.41 0 0 1-1.245-2.073L8.755 3.702a1.41 1.41 0 0 1 2.49 0z"/>
        <path fill="#FFF" d="M10.606 13.248h-1.31L9.02 8h1.859l-.274 5.248zM9 15.084c0-.3.08-.528.242-.682.16-.154.395-.23.703-.23.298 0 .528.078.69.236.163.157.245.383.245.676 0 .283-.082.506-.247.67-.165.162-.394.244-.688.244-.3 0-.533-.08-.698-.24C9.082 15.6 9 15.376 9 15.085z"/>
    </g>
</svg>
