<svg xmlns="http://www.w3.org/2000/svg" width="200" height="40" viewBox="0 0 200 40">
    <path fill="#2B333E" fill-rule="evenodd" d="M0 39.355h11.48V27.42H0v11.935zM0 12.58h11.48V.645H0V12.58zm177.644 15.807c-5.94 0-9.064-2.862-9.064-8.387 0-5.526 3.124-8.387 9.064-8.387 5.939 0 9.063 2.861 9.063 8.387 0 5.525-3.124 8.387-9.063 8.387zm0-28.387c-13.85 0-22.357 7.857-22.357 20s8.506 20 22.357 20C191.494 40 200 32.143 200 20s-8.506-20-22.356-20zm-35.952.645l-8.082 19.107L125.53.645h-14.653l13.293 27.097h-10.272v11.613h13.626c8.437 0 10.464-1.46 15.505-11.776L156.193.645h-14.501zM89.219 18.387h-7.95v-6.452h7.95c2.789 0 3.984 1.277 3.984 3.191 0 1.985-1.528 3.26-3.984 3.26zm17.125-4.839c0-8.743-4.596-12.903-18.73-12.903H68.58v38.71h12.69V28.548h7.099c3.303 0 4.23.958 4.23 4.517v6.29h13.141v-5.807c0-6.03-.98-9.019-6.042-10.322 4.602-1.805 6.646-5.007 6.646-9.678zm-80.967-.968h11.179v14.84H25.377v11.935h35.046V27.419H49.244V12.58h11.179V.645H25.377V12.58z"/>
</svg>
