<svg xmlns="http://www.w3.org/2000/svg" width="40" height="40" viewBox="0 0 40 40">
    <path fill="#2B333E" fill-rule="nonzero" d="M21.656 18.144V12h-3.312v6.144l.497-.294-4.898-2.902-.287-.17-.165.294-1.325 2.356-.166.294.287.17 4.897 2.902v-.588l-4.897 2.902-.287.17.166.294 1.325 2.356.165.294.287-.17 4.898-2.902-.497-.294V29h3.312v-6.144l-.497.294 4.898 2.902.287.17.165-.294 1.325-2.356.166-.294-.287-.17-4.897-2.902v.588l4.897-2.902.287-.17-.166-.294-1.325-2.356-.165-.294-.287.17-4.898 2.902z"/>
</svg>
