<svg xmlns="http://www.w3.org/2000/svg" width="100" height="20" viewBox="0 0 100 20">
    <path fill="#2B333E" fill-rule="evenodd" d="M0 19.677h5.74V13.71H0v5.967zM0 6.29h5.74V.323H0V6.29zm88.822 7.903c-2.97 0-4.532-1.43-4.532-4.193s1.562-4.193 4.532-4.193c2.97 0 4.532 1.43 4.532 4.193s-1.562 4.193-4.532 4.193zm0-14.193c-6.925 0-11.178 3.928-11.178 10s4.253 10 11.178 10C95.747 20 100 16.072 100 10S95.747 0 88.822 0zM70.846.323l-4.04 9.553L62.763.323h-7.326l6.647 13.548h-5.136v5.806h6.813c4.218 0 5.231-.73 7.752-5.887L78.097.323h-7.251zM44.61 9.193h-3.975V5.968h3.975c1.394 0 1.991.638 1.991 1.595 0 .992-.763 1.63-1.991 1.63zm8.562-2.419c0-4.371-2.298-6.451-9.365-6.451H34.29v19.354h6.345v-5.403h3.55c1.651 0 2.114.479 2.114 2.258v3.145h6.571v-2.903c0-3.015-.49-4.51-3.02-5.161 2.3-.902 3.322-2.504 3.322-4.839zM12.689 6.29h5.589v7.42h-5.59v5.967h17.524V13.71h-5.59V6.29h5.59V.323H12.689V6.29z"/>
</svg>
