<svg xmlns="http://www.w3.org/2000/svg" width="40" height="40" viewBox="0 0 40 40">
    <path fill="#000" fill-rule="nonzero" d="M22.247 22.676a4.989 4.989 0 0 0-.39-1.175l-.306-.638 6.399-6.399-1.414-1.414-6.399 6.399-.638-.305a5.002 5.002 0 0 0-6.119 7.563 4.99 4.99 0 0 1 1.44-4.03h7.427zm6.47-6.15l-4.78 4.779a7.002 7.002 0 0 1-11.544 7.302 7 7 0 0 1 7.302-11.545l4.78-4.78a1.5 1.5 0 0 1 2.414-1.707l3.536 3.536a1.5 1.5 0 0 1-1.708 2.414zm1.026-7.39a1 1 0 1 1-1.415 1.412 1 1 0 0 1 1.415-1.412zm2.585 2.414a1 1 0 0 1 1.415-1.414 1.001 1.001 0 0 1-1.414 1.414zm-1.293-3.293a1 1 0 0 1 1.414-1.414c.39.39.39 1.025 0 1.415-.39.39-1.024.389-1.414 0z"/>
</svg>
