<svg xmlns="http://www.w3.org/2000/svg" width="40" height="40" viewBox="0 0 40 40">
    <path fill="#000" fill-rule="nonzero" d="M22.289 22.912a4.988 4.988 0 0 0-.433-1.411l-.305-.638 6.399-6.399-1.414-1.414-6.399 6.399-.638-.305a5.002 5.002 0 0 0-6.124 7.556c-.16-1.434.24-2.906 1.445-4.024 2.05-1.9 4.186 1.037 7.469.236zm6.428-6.387l-4.78 4.78a7.002 7.002 0 0 1-11.544 7.302 7 7 0 0 1 7.302-11.545l4.78-4.78a1.5 1.5 0 0 1 2.414-1.707l3.536 3.536a1.5 1.5 0 0 1-1.708 2.414zm-.39-7.388a1.001 1.001 0 0 1 1.415 1.414 1 1 0 0 1-1.414-1.414zm5.415 2.414a1.001 1.001 0 0 1-1.414-1.415c.39-.39 1.025-.39 1.415 0 .39.39.39 1.025 0 1.415zM32.45 8.258a1 1 0 1 1 0-1.415c.39.39.39 1.025 0 1.415z"/>
</svg>
