<svg xmlns="http://www.w3.org/2000/svg" width="30" height="30" viewBox="0 0 30 30">
    <path fill="#000" fill-rule="nonzero" d="M15.5 12v2.5h2.685a7.87 7.87 0 0 0-.56-2.5H15.5zm-1 0h-2.125a7.87 7.87 0 0 0-.56 2.5H14.5V12zm1 6h2.125a7.87 7.87 0 0 0 .56-2.5H15.5V18zm-1 0v-2.5h-2.685a7.87 7.87 0 0 0 .56 2.5H14.5zm1-8.793V11h1.623A6.12 6.12 0 0 0 15.5 9.207zm-1 0A6.12 6.12 0 0 0 12.877 11H14.5V9.207zm1 11.586A6.12 6.12 0 0 0 17.123 19H15.5v1.793zm-1 0V19h-1.623a6.12 6.12 0 0 0 1.623 1.793zM8.519 14.5h2.294a9.08 9.08 0 0 1 .485-2.5H9.232a6.46 6.46 0 0 0-.713 2.5zm0 1a6.46 6.46 0 0 0 .713 2.5h2.066a9.08 9.08 0 0 1-.485-2.5H8.52zm12.962-1a6.46 6.46 0 0 0-.713-2.5h-2.066c.27.778.438 1.62.485 2.5h2.294zm0 1h-2.294a9.08 9.08 0 0 1-.485 2.5h2.066a6.46 6.46 0 0 0 .713-2.5zM9.876 11h1.842a7.5 7.5 0 0 1 1.775-2.324A6.503 6.503 0 0 0 9.876 11zm10.248 0a6.503 6.503 0 0 0-3.617-2.324A7.5 7.5 0 0 1 18.282 11h1.842zM9.876 19a6.503 6.503 0 0 0 3.617 2.324A7.5 7.5 0 0 1 11.718 19H9.876zm10.248 0h-1.842a7.5 7.5 0 0 1-1.775 2.324A6.503 6.503 0 0 0 20.124 19zM15 23a8 8 0 1 1 0-16 8 8 0 0 1 0 16z"/>
</svg>
