<svg xmlns="http://www.w3.org/2000/svg" width="30" height="30" viewBox="0 0 30 30">
    <path fill="#C4C4CC" fill-rule="evenodd" d="M21.192 9.67l-5.605 5.606c-.258.257-.333.308-.43.338a.277.277 0 0 1-.17 0c-.093-.028-.165-.076-.42-.33L8.953 9.666h11.997c.088 0 .169 0 .243.003zm1.552.742c.015.024.029.048.042.073.14.26.214.52.214 1.233v7.23c0 .714-.074.973-.214 1.233-.14.261-.344.466-.605.605-.26.14-.519.214-1.232.214H9.05c-.713 0-.972-.074-1.232-.214a1.454 1.454 0 0 1-.605-.605c-.14-.26-.214-.519-.214-1.232v-7.231c0-.713.074-.972.214-1.233.033-.062.07-.12.11-.176l6.109 6.11c.43.429.717.623 1.102.74.364.11.742.11 1.105 0 .382-.117.666-.31 1.094-.737l6.01-6.01z"/>
</svg>
