<svg xmlns="http://www.w3.org/2000/svg" width="20" height="20" viewBox="0 0 20 20">
    <g fill="none" fill-rule="evenodd">
        <circle cx="10" cy="10" r="9" fill="#F5210A"/>
        <path fill="#FFF" d="M6.069 7.38L8.689 10l-2.62 2.62a.228.228 0 0 0-.003.325l.99.989a.229.229 0 0 0 .323-.003L10 11.311l2.62 2.62c.091.09.235.093.325.003l.989-.99a.229.229 0 0 0-.003-.323L11.311 10l2.62-2.62a.228.228 0 0 0 .003-.325l-.99-.989a.229.229 0 0 0-.323.003L10 8.689 7.38 6.07a.228.228 0 0 0-.325-.003l-.989.99a.229.229 0 0 0 .003.323z"/>
    </g>
</svg>
