<svg xmlns="http://www.w3.org/2000/svg" width="30" height="30" viewBox="0 0 30 30">
    <g fill="#C4C4CC" fill-rule="evenodd">
        <path d="M20.927 16.655c-.26-.212-.587-.476-.657-2.241-.277-5.194-2.61-5.978-3.487-6.272-.064-.022-.119-.04-.16-.056-.538-.22-.645-.39-.722-.513C15.798 7.386 15.583 7 14.9 7c-.685 0-.9.387-1.032.624-.046.072-.154.241-.692.462-.042.017-.096.034-.16.056-.878.294-3.21 1.078-3.488 6.277-.07 1.761-.396 2.024-.657 2.236a2.59 2.59 0 0 0-.207.182c-.356.35-.664.652-.664 1.364 0 .537.413 1.236 1.577 1.44.294.05 10.355.05 10.644 0 1.165-.204 1.578-.903 1.578-1.44 0-.712-.308-1.014-.688-1.387a2.562 2.562 0 0 0-.184-.159zM12.807 20.689a3.101 3.101 0 0 0 4.386-.014"/>
    </g>
</svg>
