<svg xmlns="http://www.w3.org/2000/svg" width="30" height="30" viewBox="0 0 30 30">
    <path fill="#C4C4CC" fill-rule="nonzero" d="M15.438 20.41c.51.182.874.676.874 1.257 0 .736-.587 1.333-1.312 1.333a1.323 1.323 0 0 1-1.313-1.333c0-.58.366-1.075.876-1.258v-1.881a3.485 3.485 0 0 1-2.33-1.35l-1.619.94a1.323 1.323 0 0 1-1.302 1.505A1.323 1.323 0 0 1 8 18.288c0-.736.588-1.333 1.313-1.333.35 0 .67.14.905.368l1.57-.911A3.592 3.592 0 0 1 11.5 15c0-.484.095-.945.267-1.365l-1.588-.922a1.296 1.296 0 0 1-.867.331A1.323 1.323 0 0 1 8 11.711c0-.736.588-1.333 1.313-1.333a1.323 1.323 0 0 1 1.293 1.56l1.596.926a3.486 3.486 0 0 1 2.36-1.392V9.591a1.333 1.333 0 0 1-.874-1.258C13.688 7.597 14.274 7 15 7c.725 0 1.313.597 1.313 1.333 0 .58-.366 1.075-.875 1.258v1.881a3.486 3.486 0 0 1 2.36 1.392l1.596-.927a1.323 1.323 0 0 1 1.294-1.56c.724 0 1.312.598 1.312 1.334 0 .736-.588 1.333-1.313 1.333-.331 0-.634-.125-.866-.331l-1.588.922c.172.42.267.881.267 1.365 0 .486-.096.949-.27 1.37l1.586.922c.232-.21.537-.336.872-.336.724 0 1.312.597 1.312 1.333s-.588 1.333-1.313 1.333a1.323 1.323 0 0 1-1.294-1.553l-1.599-.928a3.486 3.486 0 0 1-2.357 1.387v1.881zM15 16.5a1.5 1.5 0 1 0 0-3 1.5 1.5 0 0 0 0 3z"/>
</svg>
