<svg xmlns="http://www.w3.org/2000/svg" width="30" height="30" viewBox="0 0 30 30">
    <path fill="#C4C4CC" fill-rule="evenodd" d="M22 12a2 2 0 1 1-4 0 2 2 0 0 1 4 0zm-10 0a2 2 0 1 1-4 0 2 2 0 0 1 4 0zm5-1a2 2 0 1 1-4 0 2 2 0 0 1 4 0zm4.6 4.8l1.163 1.55A1.369 1.369 0 0 1 22 19.5l-.093.023c-.469.117-.826.132-1.157.067a1.806 1.806 0 0 1-.875-.435c-.25-.225-.455-.52-.644-.964l-.692-1.63a1.1 1.1 0 0 1 .111-1.061c.22-.313.578-.5.96-.5H20a2 2 0 0 1 1.6.8zm-4.982-.675l1.18 3.179A2 2 0 0 1 15.924 21h-1.848a2 2 0 0 1-1.874-2.696l1.18-3.18a1.726 1.726 0 0 1 3.236 0zm-5.268.375a1.1 1.1 0 0 1 .111 1.062l-.692 1.629c-.19.445-.393.739-.644.964-.25.225-.544.37-.875.435-.33.065-.688.05-1.157-.067L8 19.5a1.369 1.369 0 0 1-.763-2.15L8.4 15.8A2 2 0 0 1 10 15h.39c.382 0 .74.187.96.5z"/>
</svg>
