<svg xmlns="http://www.w3.org/2000/svg" width="30" height="30" viewBox="0 0 30 30">
    <path fill="#C4C4CC" fill-rule="evenodd" d="M23 15.61v-1.22a.719.719 0 0 0-.72-.72h-.197c-.46 0-.862-.297-1.011-.732a6.268 6.268 0 0 0-.318-.764 1.073 1.073 0 0 1 .193-1.241l.142-.142a.72.72 0 0 0 0-1.016l-.864-.863a.719.719 0 0 0-1.016 0l-.152.151c-.326.327-.821.4-1.236.196a6.368 6.368 0 0 0-.755-.312 1.072 1.072 0 0 1-.737-1.012v-.216A.719.719 0 0 0 15.611 7h-1.222a.719.719 0 0 0-.718.72v.236c0 .46-.296.86-.73 1.01-.254.088-.5.192-.738.31a1.074 1.074 0 0 1-1.241-.194l-.17-.17a.719.719 0 0 0-1.017 0l-.863.863a.719.719 0 0 0 0 1.016l.18.181c.327.327.4.822.196 1.237a6.499 6.499 0 0 0-.302.727c-.149.437-.55.735-1.012.735H7.72a.72.72 0 0 0-.719.718v1.222a.72.72 0 0 0 .72.718h.254c.462 0 .863.298 1.012.735.086.25.187.492.302.727.203.415.131.91-.196 1.237l-.18.18a.719.719 0 0 0 0 1.017l.863.864a.72.72 0 0 0 1.016 0l.171-.17c.328-.329.825-.4 1.241-.194.238.117.484.22.738.308.434.15.73.552.73 1.01v.238c0 .397.322.719.718.719h1.222a.719.719 0 0 0 .718-.72v-.215c0-.462.3-.864.737-1.012.26-.088.511-.193.755-.312.415-.204.91-.13 1.236.196l.152.152a.72.72 0 0 0 1.016 0l.864-.864a.72.72 0 0 0 0-1.016l-.142-.142a1.073 1.073 0 0 1-.193-1.24c.122-.247.229-.502.318-.765.15-.435.55-.733 1.011-.733h.198c.397 0 .719-.322.719-.718zm-7.313 2.314a3.007 3.007 0 0 1-3.61-3.61 2.977 2.977 0 0 1 2.237-2.238 3.007 3.007 0 0 1 3.61 3.61 2.977 2.977 0 0 1-2.237 2.238z"/>
</svg>
