<svg xmlns="http://www.w3.org/2000/svg" xmlns:xlink="http://www.w3.org/1999/xlink" width="20" height="20" viewBox="0 0 20 20">
    <defs>
        <path id="a" d="M10 0c5.523 0 10 4.477 10 10s-4.477 10-10 10S0 15.523 0 10 4.477 0 10 0zm0 1.5a8.5 8.5 0 1 0 0 17 8.5 8.5 0 0 0 0-17zM7.858 7.155h1.377V13.5H7.858v-2.664H4.933V13.5H3.556V7.155h1.377V9.72h2.925V7.155zm8.595 6.345h-1.53l-1.098-2.025a.86.86 0 0 0-.324-.338.985.985 0 0 0-.477-.103h-.693V13.5h-1.386V7.155h2.916c.744 0 1.306.163 1.688.49.38.328.571.8.571 1.418 0 .48-.133.882-.4 1.206-.268.324-.644.537-1.13.639.33.084.609.321.837.711l1.026 1.881zm-2.799-3.528c.402 0 .693-.07.873-.211.18-.142.27-.362.27-.662 0-.306-.09-.528-.27-.666-.18-.138-.471-.207-.873-.207h-1.341v1.746h1.341z"/>
    </defs>
    <g fill="none" fill-rule="evenodd">
        <mask id="b" fill="#fff">
            <use xlink:href="#a"/>
        </mask>
        <use fill="#000" fill-rule="nonzero" xlink:href="#a"/>
        <g fill="#E4E4ED" mask="url(#b)">
            <path d="M0 0h20v20H0z"/>
        </g>
    </g>
</svg>
