<svg xmlns="http://www.w3.org/2000/svg" xmlns:xlink="http://www.w3.org/1999/xlink" width="20" height="20" viewBox="0 0 20 20">
    <defs>
        <path id="a" d="M10 0c5.523 0 10 4.477 10 10s-4.477 10-10 10S0 15.523 0 10 4.477 0 10 0zm0 2a8 8 0 1 0 0 16 8 8 0 0 0 0-16zM6.876 13.581c-.63 0-1.177-.133-1.643-.4a2.707 2.707 0 0 1-1.075-1.134c-.252-.49-.378-1.064-.378-1.724 0-.66.126-1.234.378-1.723.252-.49.61-.866 1.075-1.13.466-.264 1.013-.396 1.643-.396.63 0 1.177.132 1.642.396.466.264.824.64 1.076 1.13.252.489.378 1.063.378 1.723 0 .66-.126 1.234-.378 1.723-.252.49-.61.867-1.076 1.135-.465.267-1.012.4-1.642.4zm-.004-1.089c.528 0 .943-.186 1.246-.558.304-.372.455-.909.455-1.611s-.15-1.237-.45-1.607c-.3-.369-.717-.553-1.251-.553-.534 0-.95.184-1.247.553-.297.37-.445.905-.445 1.607s.15 1.239.45 1.611c.3.372.714.558 1.242.558zm6.341 1.089c-.48 0-.942-.064-1.386-.194-.444-.129-.813-.307-1.107-.535l.45-.999a3.523 3.523 0 0 0 2.061.639c.396 0 .7-.064.914-.194.213-.129.319-.307.319-.535 0-.204-.097-.363-.292-.477-.196-.114-.542-.225-1.04-.333-.558-.114-1.003-.252-1.336-.414-.334-.162-.576-.361-.73-.598-.153-.238-.229-.53-.229-.878 0-.384.106-.726.32-1.026.213-.3.511-.535.895-.707.384-.17.828-.256 1.332-.256.45 0 .883.066 1.3.198.418.132.749.309.995.531l-.45.999c-.582-.426-1.194-.639-1.836-.639-.366 0-.654.07-.864.211a.664.664 0 0 0-.315.581c0 .144.04.262.122.355.08.094.215.176.405.248.189.072.457.147.805.225.816.18 1.402.411 1.76.693.357.282.535.672.535 1.17 0 .6-.231 1.072-.693 1.417-.462.346-1.107.518-1.935.518z"/>
    </defs>
    <g fill="none" fill-rule="evenodd">
        <mask id="b" fill="#fff">
            <use xlink:href="#a"/>
        </mask>
        <use fill="#000" fill-rule="nonzero" xlink:href="#a"/>
        <g fill="#E4E4ED" mask="url(#b)">
            <path d="M0 0h20v20H0z"/>
        </g>
    </g>
</svg>
