<svg xmlns="http://www.w3.org/2000/svg" xmlns:xlink="http://www.w3.org/1999/xlink" width="20" height="20" viewBox="0 0 20 20">
    <defs>
        <path id="a" d="M10 0c5.523 0 10 4.477 10 10s-4.477 10-10 10S0 15.523 0 10 4.477 0 10 0zm0 1.5a8.5 8.5 0 1 0 0 17 8.5 8.5 0 0 0 0-17zm-1.35 8.715c.367.108.65.295.851.563.201.267.302.595.302.985 0 .534-.197.957-.59 1.269-.393.312-.934.468-1.624.468H4.574V7.155h2.925c.66 0 1.183.147 1.57.441.387.294.58.696.58 1.206 0 .33-.088.62-.265.869-.177.249-.421.43-.733.544zm-2.708-.477h1.323c.36 0 .625-.061.796-.184.171-.124.257-.311.257-.563 0-.264-.086-.457-.257-.58-.171-.124-.436-.185-.796-.185H5.942v1.512zm1.485 2.691c.372 0 .641-.063.81-.189.168-.126.252-.33.252-.612s-.084-.489-.252-.621c-.169-.132-.438-.198-.81-.198H5.942v1.62h1.485zm3.798-5.274h2.915c.69 0 1.227.174 1.611.522.385.348.577.834.577 1.458s-.192 1.11-.576 1.458c-.385.348-.921.522-1.612.522H12.63V13.5h-1.404V7.155zm2.736 2.898c.702 0 1.053-.303 1.053-.909 0-.312-.087-.543-.261-.693-.175-.15-.438-.225-.793-.225h-1.332v1.827h1.332z"/>
    </defs>
    <g fill="none" fill-rule="evenodd">
        <mask id="b" fill="#fff">
            <use xlink:href="#a"/>
        </mask>
        <use fill="#000" fill-rule="nonzero" xlink:href="#a"/>
        <g fill="#E4E4ED" mask="url(#b)">
            <path d="M0 0h20v20H0z"/>
        </g>
    </g>
</svg>
